<?xml version="1.0" encoding="UTF-8" standalone="no"?>
<svg
   viewBox="0 0 310 64"
   width="310"
   height="64"
   version="1.1"
   id="svg8"
   sodipodi:docname="log_horizontal_dark.svg"
   inkscape:version="1.4.3 (0d15f75042, 2025-12-25)"
   xmlns:inkscape="http://www.inkscape.org/namespaces/inkscape"
   xmlns:sodipodi="http://sodipodi.sourceforge.net/DTD/sodipodi-0.dtd"
   xmlns="http://www.w3.org/2000/svg"
   xmlns:svg="http://www.w3.org/2000/svg">
  <sodipodi:namedview
     id="namedview8"
     pagecolor="#ffffff"
     bordercolor="#000000"
     borderopacity="0.25"
     inkscape:showpageshadow="2"
     inkscape:pageopacity="0.0"
     inkscape:pagecheckerboard="0"
     inkscape:deskcolor="#d1d1d1"
     inkscape:zoom="16.3146"
     inkscape:cx="46.063035"
     inkscape:cy="32.854007"
     inkscape:window-width="1920"
     inkscape:window-height="1011"
     inkscape:window-x="0"
     inkscape:window-y="0"
     inkscape:window-maximized="1"
     inkscape:current-layer="svg8" />
  <defs
     id="defs1">
    <clipPath
       id="hdc">
      <path
         d="M32,55 C32,55 12,46 12,34 L12,18 Q12,9 19,9 L45,9 Q52,9 52,18 L52,34 C52,46 32,55 32,55Z"
         id="path1" />
    </clipPath>
    <clipPath
       id="sc">
      <path
         d="M 24,54 C 24,54 2,45 2,32 V 14 Q 2,4 10,4 h 28 q 8,0 8,10 V 32 C 46,45 24,54 24,54 Z"
         id="path2-6" />
    </clipPath>
    <clipPath
       id="hlc">
      <path
         d="M 32,55 C 32,55 12,46 12,34 V 18 q 0,-9 7,-9 h 26 q 7,0 7,9 V 34 C 52,46 32,55 32,55 Z"
         id="path1-6" />
    </clipPath>
    <clipPath
       id="hlc-9">
      <path
         d="M 32,55 C 32,55 12,46 12,34 V 18 q 0,-9 7,-9 h 26 q 7,0 7,9 V 34 C 52,46 32,55 32,55 Z"
         id="path1-2" />
    </clipPath>
  </defs>
  <path
     d="M32,55 C32,55 12,46 12,34 L12,18 Q12,9 19,9 L45,9 Q52,9 52,18 L52,34 C52,46 32,55 32,55Z"
     fill="#273044"
     id="path2" />
  <path
     d="M32,55 C32,55 12,46 12,34 L12,18 Q12,9 19,9 L45,9 Q52,9 52,18 L52,34 C52,46 32,55 32,55Z"
     fill="none"
     stroke="#4A5872"
     stroke-width="1"
     id="path3" />
  <path
     d="M32,52 C32,52 15,44 15,32 L15,19 Q15,12 22,12 L42,12 Q49,12 49,19 L49,32 C49,44 32,52 32,52Z"
     fill="none"
     stroke="#4A5872"
     stroke-width="0.6"
     opacity="0.5"
     id="path4" />
  <g
     clip-path="url(#hdc)"
     id="g7"
     transform="matrix(0.92220277,0,0,0.92220277,2.3975693,0.00707248)">
    <polyline
       points="21,43 27,35 35,29 46,21"
       fill="none"
       stroke="#8bbfd8"
       stroke-width="2"
       stroke-linecap="round"
       stroke-linejoin="round"
       id="polyline4" />
    <circle
       cx="21"
       cy="43"
       r="2"
       fill="#8bbfd8"
       id="circle4" />
    <circle
       cx="27"
       cy="35"
       r="2"
       fill="#8bbfd8"
       id="circle5" />
    <circle
       cx="35"
       cy="29"
       r="2"
       fill="#8bbfd8"
       id="circle6" />
    <circle
       cx="46"
       cy="21"
       r="2"
       fill="#8bbfd8"
       id="circle7" />
  </g>
  <line
     x1="65"
     y1="16"
     x2="65"
     y2="48"
     stroke="#35405C"
     stroke-width="1"
     id="line7" />
  <text
     font-family="'Figtree','DM Sans',ui-sans-serif,system-ui,sans-serif"
     font-size="23"
     y="40"
     id="text8"><tspan
       x="77"
       font-weight="300"
       fill="#8892A8"
       letter-spacing="2"
       id="tspan7">Finance</tspan><tspan
       dx="12"
       font-weight="600"
       fill="#DCE2EE"
       letter-spacing="0.3"
       id="tspan8">Tracker</tspan></text>
</svg>
