<?xml version="1.0" encoding="UTF-8" standalone="no"?>
<svg
   viewBox="0 0 45 51.040222"
   version="1.1"
   id="svg8"
   sodipodi:docname="logo-icon.svg"
   inkscape:version="1.4.3 (0d15f75042, 2025-12-25)"
   width="45"
   height="51.040222"
   xmlns:inkscape="http://www.inkscape.org/namespaces/inkscape"
   xmlns:sodipodi="http://sodipodi.sourceforge.net/DTD/sodipodi-0.dtd"
   xmlns="http://www.w3.org/2000/svg"
   xmlns:svg="http://www.w3.org/2000/svg">
  <sodipodi:namedview
     id="namedview8"
     pagecolor="#ffffff"
     bordercolor="#000000"
     borderopacity="0.25"
     inkscape:showpageshadow="2"
     inkscape:pageopacity="0.0"
     inkscape:pagecheckerboard="0"
     inkscape:deskcolor="#d1d1d1"
     inkscape:zoom="10.776252"
     inkscape:cx="34.473953"
     inkscape:cy="21.900008"
     inkscape:window-width="1920"
     inkscape:window-height="1011"
     inkscape:window-x="0"
     inkscape:window-y="0"
     inkscape:window-maximized="1"
     inkscape:current-layer="svg8" />
  <defs
     id="defs2">
    <linearGradient
       id="sg"
       x1="24"
       y1="4"
       x2="24"
       y2="54"
       gradientUnits="userSpaceOnUse">
      <stop
         offset="0%"
         stop-color="#2A3347"
         id="stop1" />
      <stop
         offset="100%"
         stop-color="#1C2235"
         id="stop2" />
    </linearGradient>
    <clipPath
       id="sc">
      <path
         d="M 24,54 C 24,54 2,45 2,32 V 14 Q 2,4 10,4 h 28 q 8,0 8,10 V 32 C 46,45 24,54 24,54 Z"
         id="path2" />
    </clipPath>
    <clipPath
       id="hlc">
      <path
         d="M 32,55 C 32,55 12,46 12,34 V 18 q 0,-9 7,-9 h 26 q 7,0 7,9 V 34 C 52,46 32,55 32,55 Z"
         id="path1" />
    </clipPath>
  </defs>
  <g
     id="g1"
     transform="translate(-1.5,-3.5)">
    <path
       d="M 24,54 C 24,54 2,45 2,32 V 14 Q 2,4 10,4 h 28 q 8,0 8,10 V 32 C 46,45 24,54 24,54 Z"
       fill="url(#sg)"
       id="path3"
       style="fill:url(#sg)" />
    <path
       d="M 24,54 C 24,54 2,45 2,32 V 14 Q 2,4 10,4 h 28 q 8,0 8,10 V 32 C 46,45 24,54 24,54 Z"
       fill="none"
       stroke="#3a4a62"
       stroke-width="1"
       id="path4" />
    <path
       d="M 24,51 C 24,51 5,43 5,31 V 15 Q 5,7 11,7 h 26 q 6,0 6,8 V 31 C 43,43 24,51 24,51 Z"
       fill="none"
       stroke="#3a4a62"
       stroke-width="0.7"
       opacity="0.4"
       id="path5" />
  </g>
  <g
     clip-path="url(#hlc)"
     id="g7"
     transform="matrix(1.0588137,0,0,1.0458897,-11.683573,-11.176568)">
    <polyline
       points="21,43 27,35 35,29 46,21"
       fill="none"
       stroke="#7aadc8"
       stroke-width="2"
       stroke-linecap="round"
       stroke-linejoin="round"
       id="polyline4" />
    <circle
       cx="21"
       cy="43"
       r="2"
       fill="#7aadc8"
       id="circle4" />
    <circle
       cx="27"
       cy="35"
       r="2"
       fill="#7aadc8"
       id="circle5-9" />
    <circle
       cx="35"
       cy="29"
       r="2"
       fill="#7aadc8"
       id="circle6-3" />
    <circle
       cx="46"
       cy="21"
       r="2"
       fill="#7aadc8"
       id="circle7-6" />
  </g>
</svg>
